<?xml version="1.0" encoding="utf-8"?>
<!-- Svg Vector Icons : http://www.onlinewebfonts.com/icon -->
<!DOCTYPE svg PUBLIC "-//W3C//DTD SVG 1.1//EN" "http://www.w3.org/Graphics/SVG/1.1/DTD/svg11.dtd">
<svg version="1.1" xmlns="http://www.w3.org/2000/svg" xmlns:xlink="http://www.w3.org/1999/xlink" x="0px" y="0px" viewBox="0 0 256 256" enable-background="new 0 0 256 256" xml:space="preserve">
<metadata> Svg Vector Icons : http://www.onlinewebfonts.com/icon </metadata>
<g><g><path fill="#000000" d="M211.5,150.8c-14-14-32.2-23.6-53.3-28.1c20.8-10.4,35.1-31.3,35.1-55.2c0-34.4-29.3-62.3-65.4-62.3s-65.3,28-65.3,62.3c0,24,14.2,44.8,35.1,55.2c-21.1,4.6-39.2,14.1-53.2,28.1C21.6,173.5,10,206.6,10,250.9h10.9c0-78.2,39-120.4,107.1-120.4c68,0,107.1,42.2,107.1,120.4H246C245.9,206.6,234.4,173.6,211.5,150.8L211.5,150.8z M73.5,67.4c0-28.6,24.4-51.9,54.4-51.9c30,0,54.4,23.3,54.4,51.9c0,28.6-24.4,51.9-54.4,51.9C98,119.3,73.5,96,73.5,67.4L73.5,67.4z"/></g></g>
</svg>